<svg xmlns="http://www.w3.org/2000/svg" viewBox="0 0 684 336" fill="#845EF7" width="100%" height="100%">
  <path d="M422.3,20.6c46.3,0,78.4,19.9,78.4,61.1c0,33.5-20.7,53.3-45.7,58.4v1.5c35,6.1,59.9,28.9,59.9,68.1
    c0,48.3-41.3,74.8-98.5,74.8H273.8V20.6H422.3z M361.1,120.6h47.3c30.9,0,45.6-13,45.6-36.8c0-22.3-15.8-33.7-47.3-33.7h-45.6
    V120.6z M361.1,254.9h55.3c35.6,0,53.7-13.9,53.7-39.2c0-24.3-18.1-38.4-53.7-38.4h-55.3V254.9z"/>
  <path d="M77.7,306.4c-19.2,0-37.4-4.9-54.7-14.8c-17.3-9.9-31.2-24.1-41.6-42.4L31.7,222c5.4,12.9,13.1,22.5,23.1,28.8
    c10.1,6.3,20.8,9.4,32.2,9.4c17.4,0,32.1-6.4,44.1-19.1c12-12.7,20.5-31.2,25.3-55.3l24.3-124h65.1l-24.7,126
    c-7.7,40.6-22.3,71.1-43.9,91.3C155.7,299.3,120.8,306.4,77.7,306.4z"/>
  <path d="M669.5,170.2c0,22.9-3.9,44.6-11.6,65c-7.7,20.4-18.5,38.2-32.4,53.3c-13.9,15.1-30.4,27-49.7,35.5
    c-19.2,8.5-40.4,12.8-63.3,12.8c-28.2,0-52.1-5.2-71.8-15.7c-19.7-10.5-28.6-23.4-26.8-38.9l37.6-17.3c2,8.3,8.5,15.4,19.6,21.3
    c11.1,5.9,24.4,8.8,39.9,8.8c29.6,0,53.4-12.1,71.4-36.4c18-24.3,27-56.3,27-96.1c0-22.9-5.2-40.3-15.7-52.4
    c-10.5-12.1-24.3-18.1-41.5-18.1c-12.9,0-23.7,2.8-32.3,8.5c-8.6,5.7-15.9,12.6-22,20.7l-36.8-19.2c9.5-15.5,22.4-27.9,38.9-37.2
    c16.4-9.3,35.2-13.9,56.2-13.9c20.6,0,39,3.9,55.2,11.7c16.2,7.8,29.8,18.5,40.8,32.2c11,13.7,19.4,29.8,25.1,48.5
    C666.7,129.9,669.5,149.7,669.5,170.2z"/>
</svg> 